# xmcd
#
# Track frame offsets:
#	150
#	23664
#	35964
#	73996
#	108577
#	133634
#	147170
#	165735
#	192042
#	233636
#	255198
#	267778
#	290980
#	313839
#
# Disc length: 4708 seconds
#
# Revision: 1
# Processed by: cddbd v1.5.2PL0 Copyright (c) Steve Scherf et al.
# Submitted via: audiograbber 1.83.01
#
DISCID=d112620e
DTITLE=Piano Pete Budden - Two In One
DYEAR=2004
DGENRE=
TTITLE0=Long Time Ago
TTITLE1=Station Shuffle
TTITLE2=Blues From The Country
TTITLE3=Out Of This World
TTITLE4=Love This Day
TTITLE5=Me Oh My
TTITLE6=My Favourite
TTITLE7=Burned Out
TTITLE8=Turn The Page
TTITLE9=Oh When The Saints
TTITLE10=Can't Help Myself
TTITLE11=Fool's Paradise
TTITLE12=Shine
TTITLE13=Two in One
EXTD=
EXTT0=
EXTT1=
EXTT2=
EXTT3=
EXTT4=
EXTT5=
EXTT6=
EXTT7=
EXTT8=
EXTT9=
EXTT10=
EXTT11=
EXTT12=
EXTT13=
PLAYORDER=
